<?xml version="1.0" encoding="UTF-8"?>
<svg version="1.1" xmlns="http://www.w3.org/2000/svg" width="928" height="144">
<path d="M0 0 C306.24 0 612.48 0 928 0 C928 47.52 928 95.04 928 144 C621.76 144 315.52 144 0 144 C0 96.48 0 48.96 0 0 Z " fill="#FCFCFC" transform="translate(0,0)"/>
<path d="M0 0 C1.5358949 -0.00390293 3.07178875 -0.00824076 4.60768127 -0.01298523 C7.80367556 -0.02038191 10.99955925 -0.02020392 14.19555664 -0.01489258 C18.24740018 -0.00909929 22.29878638 -0.02605767 26.35055447 -0.04923725 C29.51571705 -0.06411969 32.68077304 -0.06482694 35.84596443 -0.06172752 C37.33797169 -0.06223324 38.82998615 -0.06732604 40.32195854 -0.07753944 C56.71156052 -0.17602796 73.08134775 1.13913838 85.42578125 12.83984375 C93.28706371 21.62106352 93.93868934 33.66347071 93.89453125 44.9140625 C93.8964447 46.00486618 93.89835815 47.09566986 93.90032959 48.2195282 C93.90168418 50.5163903 93.89803875 52.81326025 93.88964844 55.11010742 C93.87897009 58.59246372 93.88955279 62.07430052 93.90234375 65.55664062 C93.90102142 67.80078237 93.89845751 70.0449238 93.89453125 72.2890625 C93.89857971 73.31445633 93.90262817 74.33985016 93.90679932 75.39631653 C93.82659943 88.00454522 92.49045149 102.15882693 83.44140625 111.7734375 C70.39026118 122.77127742 51.28617779 122.45497268 35.21484375 122.46875 C33.83257007 122.47197468 32.4502967 122.47533959 31.06802368 122.47883606 C28.18189709 122.48478857 25.29580026 122.48668009 22.40966797 122.48608398 C18.75922372 122.48598284 15.10897604 122.49960357 11.45857811 122.51685619 C8.60477876 122.52812303 5.75102464 122.52999873 2.89720535 122.52947426 C0.912443 122.53118734 -1.07230524 122.54193436 -3.05703735 122.55302429 C-28.75177869 122.4896724 -28.75177869 122.4896724 -39.37109375 116.30078125 C-40.42296875 115.70265625 -41.47484375 115.10453125 -42.55859375 114.48828125 C-50.71270709 108.1461931 -54.78923314 100.42114113 -56.37109375 90.30078125 C-56.64691175 86.05144341 -56.65178474 81.81578453 -56.63671875 77.55859375 C-56.6386322 76.35443817 -56.64054565 75.15028259 -56.64251709 73.90963745 C-56.64387257 71.37318715 -56.64022085 68.83672977 -56.63183594 66.30029297 C-56.62114655 62.44482616 -56.63174368 58.58982727 -56.64453125 54.734375 C-56.64320918 52.25911357 -56.6406458 49.78385242 -56.63671875 47.30859375 C-56.64076721 46.16866974 -56.64481567 45.02874573 -56.64898682 43.85427856 C-56.57633152 31.27760031 -55.15323084 20.8979391 -46.55078125 11.26171875 C-34.10616276 -0.57830289 -16.14866462 -0.01742715 0 0 Z " fill="#050505" transform="translate(662.37109375,11.69921875)"/>
<path d="M0 0 C24.0384375 -0.061875 24.0384375 -0.061875 48.5625 -0.125 C53.59443604 -0.14320801 58.62637207 -0.16141602 63.81079102 -0.18017578 C70.02722168 -0.18920898 70.02722168 -0.18920898 72.95127869 -0.19088745 C74.96312855 -0.19392832 76.97497511 -0.20089835 78.98680115 -0.21115112 C116.13725766 -0.39076596 116.13725766 -0.39076596 126.421875 9.17578125 C133.1393893 16.94082871 132.90232169 27.15806255 132.24072266 36.88671875 C131.56188366 42.84618154 129.78590106 49.09339835 125 53 C124.34 53 123.68 53 123 53 C123 53.66 123 54.32 123 55 C124.051875 55.2784375 124.051875 55.2784375 125.125 55.5625 C129.05108917 57.52554458 131.57471602 60.36207403 134 64 C135.76166246 69.32246958 135.26291836 75.14098755 135.29516602 80.6796875 C135.30666292 82.05283939 135.32707894 83.42594739 135.35668945 84.79882812 C135.56908725 94.66167981 135.11827911 100.96654776 128.75 108.75 C117.76820828 117.73510232 103.40757698 118.16766487 89.79858398 118.11352539 C88.8062806 118.11364593 87.81397722 118.11376646 86.79160404 118.11389065 C83.60974371 118.11314992 80.42794347 118.10556027 77.24609375 118.09765625 C75.26957223 118.09618423 73.29305031 118.09516512 71.31652832 118.09460449 C64.0235129 118.08938179 56.73050585 118.07542052 49.4375 118.0625 C24.9659375 118.0315625 24.9659375 118.0315625 0 118 C0 79.06 0 40.12 0 0 Z " fill="#030303" transform="translate(458,14)"/>
<path d="M0 0 C15.984375 -0.020625 31.96875 -0.04125 48.4375 -0.0625 C55.98902954 -0.07615601 55.98902954 -0.07615601 63.69311523 -0.09008789 C69.87316895 -0.09460449 69.87316895 -0.09460449 72.77259827 -0.09544373 C74.78387168 -0.09697241 76.79514422 -0.10047509 78.80641174 -0.10557556 C81.86501644 -0.1129397 84.92356545 -0.11390449 87.98217773 -0.11352539 C88.86789428 -0.1171235 89.75361082 -0.12072161 90.66616726 -0.12442875 C102.66568177 -0.10463929 116.47538037 0.94070647 126 9 C133.12336206 16.53041132 133.51052477 23.8042 133.44604492 33.79614258 C133.43756528 35.79709487 133.46765838 37.79808863 133.49804688 39.79882812 C133.49357571 48.74563252 132.96967986 57.03032014 126.375 63.625 C124 65 124 65 122 65 C122 65.66 122 66.32 122 67 C123.485 67.495 123.485 67.495 125 68 C126.5703125 69.9609375 126.5703125 69.9609375 128.125 72.375 C128.64320313 73.16648437 129.16140625 73.95796875 129.6953125 74.7734375 C132.38212935 79.35872375 132.12939267 83.67390791 132.09765625 88.82421875 C132.09553383 90.11632011 132.09553383 90.11632011 132.09336853 91.43452454 C132.0877714 94.18555169 132.07521946 96.93649744 132.0625 99.6875 C132.05748463 101.5527332 132.05292179 103.41796767 132.04882812 105.28320312 C132.03865384 109.85552534 132.01907787 114.42767155 132 119 C124.74 119 117.48 119 110 119 C109.95101562 116.44765625 109.90203125 113.8953125 109.8515625 111.265625 C109.79753149 108.78998012 109.74023237 106.31443094 109.68261719 103.83886719 C109.64436673 102.12018989 109.60950697 100.40143362 109.578125 98.68261719 C109.53238872 96.2099996 109.47440916 93.73792387 109.4140625 91.265625 C109.40251129 90.49881409 109.39096008 89.73200317 109.37905884 88.94195557 C109.3602108 83.57991337 109.3602108 83.57991337 107 79 C102.34835146 77.05812045 98.04188492 76.6961382 93.06689453 76.68115234 C92.2954863 76.67110672 91.52407806 76.6610611 90.72929382 76.65071106 C88.19714048 76.61999148 85.66509232 76.60287542 83.1328125 76.5859375 C81.37017926 76.5672168 79.6075549 76.54764271 77.84494019 76.5272522 C73.21888472 76.47602026 68.59280023 76.4363468 63.96661377 76.39910889 C58.40893023 76.35195626 52.85138972 76.29039682 47.29382324 76.23126221 C38.86260684 76.14315893 30.43141635 76.07331666 22 76 C22 90.19 22 104.38 22 119 C14.74 119 7.48 119 0 119 C0 79.73 0 40.46 0 0 Z " fill="#070707" transform="translate(307,13)"/>
<path d="M0 0 C0.72129593 -0.00365067 1.44259186 -0.00730133 2.18574524 -0.01106262 C4.54920652 -0.01911043 6.91196959 -0.00560682 9.27539062 0.0090332 C10.93013509 0.00955251 12.58488017 0.00903209 14.23962402 0.00752258 C17.69939443 0.00761205 21.15893057 0.01798874 24.61865234 0.03613281 C29.04021778 0.05881898 33.46144138 0.05936125 37.88304901 0.05261517 C41.29753628 0.04926422 44.71194646 0.05592645 48.12641907 0.0657444 C49.75620622 0.06957728 51.38600197 0.0707526 53.01579285 0.06915855 C55.29845341 0.06878522 57.58068546 0.08148232 59.86328125 0.09765625 C61.15899048 0.10226364 62.45469971 0.10687103 63.78967285 0.11161804 C70.43988061 0.58764787 76.609511 2.24781379 81.18164062 7.30981445 C83.41277249 10.99118204 83.55949157 14.42717687 83.5769043 18.67236328 C83.58328415 19.73058792 83.589664 20.78881256 83.59623718 21.87910461 C83.59735001 23.01768417 83.59846283 24.15626373 83.59960938 25.3293457 C83.60460197 27.09383308 83.60460197 27.09383308 83.60969543 28.89396667 C83.61475795 31.38292042 83.61710397 33.87188095 83.61694336 36.36083984 C83.61912619 40.15970113 83.63727936 43.95827031 83.65625 47.75708008 C83.65918482 50.17700096 83.66116902 52.59692322 83.66210938 55.0168457 C83.66929489 56.14935257 83.67648041 57.28185944 83.68388367 58.44868469 C83.64451969 72.10914268 83.64451969 72.10914268 78.68164062 77.18481445 C73.16135184 80.90039344 68.49385198 81.62383187 61.90087891 81.64697266 C60.80693314 81.65463905 60.80693314 81.65463905 59.69088745 81.66246033 C57.29449111 81.67629139 54.8983845 81.67540435 52.50195312 81.6730957 C50.82575373 81.67698647 49.14955531 81.68132193 47.47335815 81.68608093 C43.96479086 81.6935294 40.45632421 81.69326205 36.94775391 81.68798828 C32.46678422 81.68219839 27.98622852 81.69911957 23.50532722 81.72233295 C20.04448058 81.73711478 16.58373258 81.73793591 13.12285995 81.73482323 C11.47155819 81.7353343 9.82025058 81.74053162 8.16897964 81.75063515 C5.85278218 81.76306781 3.5373776 81.75616766 1.22119141 81.74462891 C-0.75021317 81.74557304 -0.75021317 81.74557304 -2.76144409 81.74653625 C-8.02524055 81.22910226 -12.59898775 79.86264973 -16.88085938 76.62231445 C-21.85688698 69.98761098 -22.0132294 63.88647825 -21.96679688 55.84887695 C-21.96966705 54.74812836 -21.97253723 53.64737976 -21.97549438 52.51327515 C-21.97752986 50.19186894 -21.97203629 47.87044537 -21.95947266 45.54907227 C-21.94344324 42.01579965 -21.95932395 38.48367624 -21.97851562 34.95043945 C-21.9765325 32.68741612 -21.9726874 30.42439349 -21.96679688 28.16137695 C-21.97286957 27.11422516 -21.97894226 26.06707336 -21.98519897 24.9881897 C-21.91671901 17.76264172 -21.21123486 10.95907403 -16.81835938 4.99731445 C-11.36937881 1.0619396 -6.65962616 -0.00323509 0 0 Z " fill="#FDFDFD" transform="translate(649.568359375,31.627685546875)"/>
<path d="M0 0 C9.24 0 18.48 0 28 0 C30.64 2.64 33.28 5.28 36 8 C37.97531135 9.72447816 39.95072841 11.448894 41.9375 13.16015625 C46.60324422 17.32221217 50.90745007 21.87174103 55.2890625 26.328125 C59.39511971 30.4765127 63.57810169 34.42299977 68.00390625 38.2265625 C72.42797108 42.15714065 76.49980444 46.463371 80.64453125 50.68359375 C84.64544254 54.72839072 88.73682041 58.56154656 93.04882812 62.27148438 C96.35052297 65.19640924 99.41311995 68.35181791 102.5 71.5 C107.00541752 76.05445002 111.52799576 80.49457501 116.4140625 84.64453125 C118.76073909 86.65018834 120.91605043 88.72068016 123 91 C123 91.66 123 92.32 123 93 C123.66 93 124.32 93 125 93 C125 62.31 125 31.62 125 0 C131.93 0 138.86 0 146 0 C146 38.94 146 77.88 146 118 C120 118 120 118 114 114.125 C112.61888531 112.45505905 111.28532613 110.74473989 110 109 C108.31544515 107.26821464 106.60643306 105.55991695 104.875 103.875 C104.12992188 103.10929687 103.38484375 102.34359375 102.6171875 101.5546875 C100.57448617 99.5607671 98.5160144 97.70540079 96.3515625 95.8515625 C90.16496126 90.48771694 84.52206052 84.56541864 78.77734375 78.73828125 C74.96583257 74.89348176 71.18029174 71.08057233 67.0625 67.5625 C61.03122941 62.39719546 55.56372494 56.61894216 49.99072266 50.97021484 C44.70426073 45.61846675 39.40952307 40.3517941 33.68457031 35.46191406 C31.38001792 33.46196337 29.2513054 31.31184079 27.125 29.125 C24.34607083 26.1723451 24.34607083 26.1723451 21 24 C21 55.02 21 86.04 21 118 C14.07 118 7.14 118 0 118 C0 79.06 0 40.12 0 0 Z " fill="#020202" transform="translate(774,14)"/>
<path d="M0 0 C1.48815531 -0.00645028 2.97630942 -0.01318016 4.46446228 -0.02017212 C7.57163421 -0.03207558 10.67869559 -0.03586041 13.78588867 -0.03466797 C16.93456093 -0.03450585 20.08264874 -0.04833478 23.23120117 -0.07568359 C69.3650479 -0.47011127 69.3650479 -0.47011127 81.23460388 9.8789978 C88.57132827 17.41001391 89.80916871 26.44524384 89.71484375 36.5234375 C89.63234375 39.4315625 89.54984375 42.3396875 89.46484375 45.3359375 C82.53484375 45.3359375 75.60484375 45.3359375 68.46484375 45.3359375 C68.21484375 38.2109375 68.21484375 38.2109375 68.16699219 36.00341797 C67.91030607 31.02235624 66.76258409 28.05397808 63.46484375 24.3359375 C58.5256728 21.79761371 54.89022015 20.95871976 49.26367188 20.94775391 C48.58139023 20.94249695 47.89910858 20.93723999 47.19615173 20.93182373 C44.96255945 20.9187244 42.72969205 20.92732526 40.49609375 20.9375 C38.9310289 20.93547636 37.36596497 20.9325625 35.80090332 20.92880249 C32.5294492 20.92439279 29.25824173 20.93076625 25.98681641 20.94482422 C21.80728774 20.96191549 17.62833714 20.952067 13.44882965 20.93410683 C10.21962175 20.92323219 6.99054941 20.92673213 3.76133728 20.9344902 C2.22086009 20.93648206 0.68037033 20.93406883 -0.86009216 20.92705154 C-3.01838477 20.91937591 -5.17575959 20.93112485 -7.33398438 20.94775391 C-8.55863403 20.95014069 -9.78328369 20.95252747 -11.04504395 20.95498657 C-16.27796858 21.52616805 -20.20449732 22.93524389 -23.91015625 26.8359375 C-26.33360422 30.564319 -26.66557827 33.35644642 -26.69628906 37.70605469 C-26.70589661 38.80439636 -26.71550415 39.90273804 -26.72540283 41.03436279 C-26.73177765 42.8155954 -26.73177765 42.8155954 -26.73828125 44.6328125 C-26.74683136 46.46601044 -26.74683136 46.46601044 -26.7555542 48.33624268 C-26.76500807 50.92532484 -26.77153971 53.51441906 -26.77539062 56.10351562 C-26.78508334 60.05620461 -26.81609883 64.00837087 -26.84765625 67.9609375 C-26.85418763 70.47655941 -26.85943757 72.99218504 -26.86328125 75.5078125 C-26.87562805 76.68720398 -26.88797485 77.86659546 -26.9006958 79.08172607 C-26.88397795 85.27036064 -26.64666613 89.9209815 -23.53515625 95.3359375 C-18.73469074 99.89637974 -15.17400433 100.46146825 -8.69628906 100.48120117 C-8.00483795 100.48455978 -7.31338684 100.4879184 -6.60098267 100.49137878 C-4.31339727 100.50088254 -2.02588517 100.50283186 0.26171875 100.50390625 C1.85491974 100.50712016 3.44812043 100.51048433 5.0413208 100.51399231 C8.38367395 100.51998279 11.72600124 100.52183239 15.06835938 100.52124023 C19.33979434 100.52113883 23.61106228 100.53476905 27.88245773 100.55201244 C31.17511752 100.56316413 34.46773739 100.56515844 37.76041412 100.56463051 C39.33438948 100.56580669 40.908366 100.5702081 42.48232269 100.57796288 C44.69113124 100.5878232 46.89958345 100.58486076 49.10839844 100.57885742 C50.36287781 100.58028244 51.61735718 100.58170746 52.90985107 100.58317566 C57.65367693 100.25325803 61.84866226 99.4716326 65.77734375 96.7109375 C70.09564319 90.63333088 69.92612949 82.51879426 70.46484375 75.3359375 C77.06484375 75.3359375 83.66484375 75.3359375 90.46484375 75.3359375 C90.50609375 78.3059375 90.54734375 81.2759375 90.58984375 84.3359375 C90.60805176 85.25503906 90.62625977 86.17414063 90.64501953 87.12109375 C90.71145255 97.11604897 88.27167256 106.10274893 81.4296875 113.6640625 C66.87184002 126.05125678 41.63510578 122.68268672 23.79296875 122.65161133 C20.90739404 122.64696821 18.02223957 122.6539543 15.13671875 122.67211914 C-28.11935346 122.94198125 -28.11935346 122.94198125 -39.48828125 112.55078125 C-49.44426174 102.03007077 -50.83966542 88.82020655 -50.87109375 74.88671875 C-50.87775055 73.8304277 -50.88440735 72.77413666 -50.89126587 71.68583679 C-50.90132369 69.4648104 -50.90608504 67.24375422 -50.90576172 65.02270508 C-50.9101228 61.67411971 -50.94648491 58.32686772 -50.984375 54.97851562 C-51.0657396 39.43665095 -51.15433195 22.32039836 -39.68359375 10.4140625 C-28.51332246 -0.02302496 -14.50240948 0.01499325 0 0 Z " fill="#060606" transform="translate(52.53515625,11.6640625)"/>
<path d="M0 0 C1.58844727 -0.05607422 1.58844727 -0.05607422 3.20898438 -0.11328125 C4.22927734 -0.12488281 5.24957031 -0.13648438 6.30078125 -0.1484375 C7.70517456 -0.1781665 7.70517456 -0.1781665 9.13793945 -0.20849609 C12.76872584 0.6224509 13.6543416 2.3149092 15.6875 5.375 C16.95313545 7.39557886 18.17989997 9.44082411 19.375 11.50390625 C19.71377167 12.08569641 20.05254333 12.66748657 20.40158081 13.26690674 C21.12489698 14.50991117 21.84644122 15.75394814 22.56634521 16.99893188 C24.47605713 20.30097962 26.3992533 23.59517066 28.3203125 26.890625 C28.70099884 27.54452713 29.08168518 28.19842926 29.47390747 28.87214661 C32.4625422 34.0021294 35.49528633 39.10407595 38.5625 44.1875 C43.78529256 52.85415472 48.96032761 61.5486333 54.125 70.25 C54.53411621 70.93913483 54.94323242 71.62826965 55.36474609 72.33828735 C59.45802074 79.23393535 63.54696461 86.13208291 67.62109375 93.0390625 C68.20898682 94.03566895 68.79687988 95.03227539 69.40258789 96.05908203 C70.4666189 97.86413184 71.52969451 99.66974537 72.59155273 101.47607422 C75.23738571 105.96654676 77.94356475 110.39794214 80.79150391 114.76367188 C81.6875 116.375 81.6875 116.375 81.6875 118.375 C62.89473413 121.32480501 62.89473413 121.32480501 56.69433594 116.97753906 C52.93467046 112.73849912 50.63682716 107.57950992 48.22949219 102.49462891 C45.62817449 97.23186172 42.54999992 92.24776396 39.53445435 87.21566772 C37.68738757 84.11632615 35.87882104 80.9946857 34.06640625 77.875 C31.22065034 72.98713739 28.35522401 68.11160944 25.46484375 63.25 C24.95219971 62.38772293 24.95219971 62.38772293 24.42919922 61.50802612 C22.74922003 58.68349125 21.06819079 55.85958162 19.38720703 53.03564453 C14.58129346 44.93976051 9.88734983 36.78503052 5.31518555 28.5546875 C4.86312744 27.7503125 4.41106934 26.9459375 3.9453125 26.1171875 C3.35967529 25.06313721 3.35967529 25.06313721 2.76220703 23.98779297 C1.76975014 22.20932468 1.76975014 22.20932468 -0.3125 21.375 C-0.5496875 22.02984375 -0.786875 22.6846875 -1.03125 23.359375 C-2.69460078 27.27433476 -4.73166824 30.91871728 -6.8125 34.625 C-7.25464844 35.41640381 -7.69679688 36.20780762 -8.15234375 37.02319336 C-12.35698091 44.51605332 -16.70351708 51.92195708 -21.08886719 59.31005859 C-22.65282894 61.94932206 -24.20576499 64.59497134 -25.75830078 67.2409668 C-30.28559021 74.95423071 -34.83463514 82.65472469 -39.38885498 90.35211182 C-40.40270749 92.06617815 -41.41548426 93.78088064 -42.42822266 95.49560547 C-43.72614788 97.68777945 -45.03745237 99.8720895 -46.36230469 102.0480957 C-47.72964005 104.38067945 -48.96133254 106.64913708 -50.14550781 109.06713867 C-54.57797647 117.75996037 -54.57797647 117.75996037 -59.19189453 119.39599609 C-62.49512097 119.6564674 -65.51727635 119.52056985 -68.8125 119.1875 C-69.92109375 119.12884766 -71.0296875 119.07019531 -72.171875 119.00976562 C-74.89499896 118.85717678 -77.59888831 118.64463804 -80.3125 118.375 C-79.04903784 114.20461915 -77.49570032 110.70115386 -75.22265625 106.98828125 C-74.30154053 105.47113525 -74.30154053 105.47113525 -73.36181641 103.92333984 C-72.70616699 102.8555127 -72.05051758 101.78768555 -71.375 100.6875 C-70.00791466 98.43692636 -68.64203949 96.18561719 -67.27734375 93.93359375 C-66.60300293 92.82226074 -65.92866211 91.71092773 -65.23388672 90.56591797 C-62.5800114 86.1585291 -59.99945636 81.71126579 -57.4375 77.25 C-53.97148922 71.22581801 -50.45688438 65.23698792 -46.86572266 59.28662109 C-43.47919051 53.67026126 -40.14436232 48.02392964 -36.8125 42.375 C-32.04504246 34.29547193 -27.24841673 26.23484213 -22.40820312 18.19873047 C-21.20033048 16.18830073 -19.99822902 14.17448763 -18.796875 12.16015625 C-18.38147461 11.46462646 -17.96607422 10.76909668 -17.53808594 10.05249023 C-16.7381423 8.71282367 -15.93926481 7.37251974 -15.14160156 6.03149414 C-10.92752992 -1.01706506 -7.96878692 0.10554685 0 0 Z " fill="#040404" transform="translate(221.3125,13.625)"/>
<path d="M0 0 C19.39483758 -0.16043524 19.39483758 -0.16043524 27.69140625 -0.1953125 C33.34243886 -0.21918137 38.99321108 -0.24735338 44.64404297 -0.30175781 C49.20225876 -0.34536595 53.76019514 -0.36916868 58.31860352 -0.37950897 C60.05367427 -0.38687356 61.78873053 -0.40125483 63.52368164 -0.42292023 C65.96273291 -0.45215412 68.40064419 -0.45594781 70.83984375 -0.45410156 C71.90476295 -0.47567322 71.90476295 -0.47567322 72.99119568 -0.49768066 C78.25743871 -0.45482644 82.78656263 0.82509371 87 4 C89.6209398 8.35618287 89.3674369 12.41360891 89.375 17.375 C89.39949219 18.21289062 89.42398438 19.05078125 89.44921875 19.9140625 C89.47501318 25.38248159 88.88654309 28.82939064 85 33 C80.35521435 35.00343908 76.05134132 35.27702859 71.06689453 35.22705078 C70.2954863 35.22734283 69.52407806 35.22763489 68.72929382 35.22793579 C66.1970162 35.22655011 63.66503828 35.21102512 61.1328125 35.1953125 C59.37019003 35.19157966 57.60756548 35.18873396 55.84494019 35.18673706 C51.21877251 35.17912198 46.59273157 35.15949182 41.96661377 35.1373291 C36.40904356 35.1132161 30.85143085 35.10407957 25.29382324 35.09242249 C16.86246084 35.07306613 8.4313762 35.03472878 0 35 C0 23.45 0 11.9 0 0 Z " fill="#FCFCFC" transform="translate(329,33)"/>
<path d="M0 0 C10.12761017 -0.04531525 20.2551522 -0.08195313 30.38284111 -0.10362434 C35.08632064 -0.11402922 39.78972677 -0.12812778 44.49316406 -0.15087891 C49.03839965 -0.17272539 53.58356496 -0.18459337 58.12884903 -0.18975449 C59.8566511 -0.19342915 61.58444965 -0.20060446 63.31222153 -0.21146011 C85.48231417 -0.34512389 85.48231417 -0.34512389 92 4 C93.27595098 7.82785293 93.18415169 11.4496657 93.1875 15.4375 C93.19974609 16.20126953 93.21199219 16.96503906 93.22460938 17.75195312 C93.24457491 25.39875291 93.24457491 25.39875291 91 28 C85.64178655 30.77239152 81.47171276 31.42537276 75.49438477 31.34057617 C74.2639016 31.34123329 74.2639016 31.34123329 73.00856018 31.34190369 C70.31925979 31.33982735 67.63059663 31.31655144 64.94140625 31.29296875 C63.06811361 31.28736868 61.19481656 31.28310052 59.32151794 31.28010559 C54.40760012 31.2686892 49.49395124 31.23924974 44.58013916 31.20599365 C39.55932248 31.17522349 34.53846206 31.16158544 29.51757812 31.14648438 C19.67824867 31.1143768 9.83918885 31.06163519 0 31 C0 20.77 0 10.54 0 0 Z " fill="#FDFDFD" transform="translate(479,81)"/>
<path d="M0 0 C9.88411317 -0.04529681 19.76815669 -0.08194258 29.65235043 -0.10362434 C34.24263828 -0.11403376 38.83285105 -0.12814073 43.4230957 -0.15087891 C47.85810134 -0.17270905 52.29303504 -0.18458998 56.72809029 -0.18975449 C58.41485284 -0.19343205 60.10161174 -0.20061316 61.78834343 -0.21146011 C82.9028268 -0.3417651 82.9028268 -0.3417651 88.5625 3.9375 C90.74878229 8.59523183 90.63008158 12.94452193 90 18 C88.66792442 21.45128672 87.59003919 23.40996081 85 26 C80.01730941 26.98433571 75.10615728 27.1393645 70.04516602 27.11352539 C69.28336533 27.11367142 68.52156464 27.11381744 67.73667908 27.1139679 C65.24239154 27.1132765 62.74818059 27.10552061 60.25390625 27.09765625 C58.51513205 27.09578932 56.77635732 27.09436672 55.0375824 27.09336853 C50.47887703 27.089565 45.92020392 27.07975334 41.36151123 27.06866455 C36.70260047 27.05840375 32.04368445 27.05386093 27.38476562 27.04882812 C18.25649402 27.038129 9.12825475 27.02054988 0 27 C0 18.09 0 9.18 0 0 Z " fill="#FCFCFC" transform="translate(479,33)"/>
<path d="M0 0 C1.3609623 2.7219246 0.70366248 4.1831957 0.0625 7.125 C-0.13214844 8.03507812 -0.32679687 8.94515625 -0.52734375 9.8828125 C-0.68332031 10.58148438 -0.83929688 11.28015625 -1 12 C-1.33 10.68 -1.66 9.36 -2 8 C-2.66 8 -3.32 8 -4 8 C-3.50168276 4.31245243 -2.89932357 2.39509338 0 0 Z " fill="#EAEAEA" transform="translate(4,36)"/>
<path d="M0 0 C2 2 2 2 2.125 5.125 C2.08375 6.07375 2.0425 7.0225 2 8 C1.01 8.495 1.01 8.495 0 9 C-1.125 6.1875 -1.125 6.1875 -2 3 C-1.34 2.01 -0.68 1.02 0 0 Z " fill="#101010" transform="translate(435,86)"/>
</svg>
